<?xml version="1.0" encoding="us-ascii" standalone="no"?><svg xmlns="http://www.w3.org/2000/svg" xmlns:xlink="http://www.w3.org/1999/xlink" contentStyleType="text/css" height="387px" preserveAspectRatio="none" style="width:809px;height:387px;background:#FFFFFF;" version="1.1" viewBox="0 0 809 387" width="809px" zoomAndPan="magnify"><defs/><g><ellipse cx="304.25" cy="20" fill="#222222" rx="10" ry="10" style="stroke:#222222;stroke-width:1.0;"/><rect fill="#F1F1F1" height="36.3441" rx="12.5" ry="12.5" style="stroke:#181818;stroke-width:0.5;" width="181" x="213.75" y="50"/><text fill="#000000" font-family="sans-serif" font-size="12" lengthAdjust="spacing" textLength="161" x="223.75" y="72.8281">Pick two indicies from strings</text><polygon fill="#F1F1F1" points="231.75,106.3441,376.75,106.3441,388.75,118.3441,376.75,130.3441,231.75,130.3441,219.75,118.3441,231.75,106.3441" style="stroke:#181818;stroke-width:0.5;"/><text fill="#000000" font-family="sans-serif" font-size="11" lengthAdjust="spacing" textLength="145" x="231.75" y="122.6121">Are the characters the same</text><text fill="#000000" font-family="sans-serif" font-size="11" lengthAdjust="spacing" textLength="17" x="202.75" y="115.1211">yes</text><text fill="#000000" font-family="sans-serif" font-size="11" lengthAdjust="spacing" textLength="14" x="388.75" y="115.1211">no</text><rect fill="#F1F1F1" height="36.3441" rx="12.5" ry="12.5" style="stroke:#181818;stroke-width:0.5;" width="182" x="11" y="140.3441"/><text fill="#000000" font-family="sans-serif" font-size="12" lengthAdjust="spacing" textLength="162" x="21" y="163.1722">Check without the characters</text><rect fill="#F1F1F1" height="36.3441" rx="12.5" ry="12.5" style="stroke:#181818;stroke-width:0.5;" width="110" x="47" y="211.6882"/><text fill="#000000" font-family="sans-serif" font-size="12" lengthAdjust="spacing" textLength="90" x="57" y="234.5163">return 1 + result</text><ellipse cx="102" cy="294.0323" fill="none" rx="11" ry="11" style="stroke:#222222;stroke-width:1.0;"/><ellipse cx="102" cy="294.0323" fill="#222222" rx="6" ry="6" style="stroke:#222222;stroke-width:1.0;"/><rect fill="#555555" height="6" rx="2.5" ry="2.5" style="stroke:#555555;stroke-width:1.0;" width="585" x="213" y="140.3441"/><rect fill="#F1F1F1" height="52.6882" rx="12.5" ry="12.5" style="stroke:#181818;stroke-width:0.5;" width="167" x="227" y="166.3441"/><text fill="#000000" font-family="sans-serif" font-size="12" lengthAdjust="spacing" textLength="147" x="237" y="189.1722">Check with character from</text><text fill="#000000" font-family="sans-serif" font-size="12" lengthAdjust="spacing" textLength="110" x="237" y="205.5163">first string removed</text><rect fill="#F1F1F1" height="52.6882" rx="12.5" ry="12.5" style="stroke:#181818;stroke-width:0.5;" width="167" x="422" y="166.3441"/><text fill="#000000" font-family="sans-serif" font-size="12" lengthAdjust="spacing" textLength="147" x="432" y="189.1722">Check with character from</text><text fill="#000000" font-family="sans-serif" font-size="12" lengthAdjust="spacing" textLength="128" x="432" y="205.5163">second string removed</text><rect fill="#F1F1F1" height="52.6882" rx="12.5" ry="12.5" style="stroke:#181818;stroke-width:0.5;" width="169" x="617" y="166.3441"/><text fill="#000000" font-family="sans-serif" font-size="12" lengthAdjust="spacing" textLength="123" x="627" y="189.1722">Check with characters</text><text fill="#000000" font-family="sans-serif" font-size="12" lengthAdjust="spacing" textLength="149" x="627" y="205.5163">from both strings removed</text><polygon fill="#F1F1F1" points="506.5,239.0323,518.5,251.0323,506.5,263.0323,494.5,251.0323,506.5,239.0323" style="stroke:#181818;stroke-width:0.5;"/><rect fill="#F1F1F1" height="36.3441" rx="12.5" ry="12.5" style="stroke:#181818;stroke-width:0.5;" width="202" x="405.5" y="298.0323"/><text fill="#000000" font-family="sans-serif" font-size="12" lengthAdjust="spacing" textLength="182" x="415.5" y="320.8604">return maximum of three results</text><ellipse cx="506.5" cy="365.3765" fill="none" rx="11" ry="11" style="stroke:#222222;stroke-width:1.0;"/><ellipse cx="506.5" cy="365.3765" fill="#222222" rx="6" ry="6" style="stroke:#222222;stroke-width:1.0;"/><line style="stroke:#181818;stroke-width:1.0;" x1="304.25" x2="304.25" y1="30" y2="50"/><polygon fill="#181818" points="300.25,40,304.25,50,308.25,40,304.25,44" style="stroke:#181818;stroke-width:1.0;"/><line style="stroke:#181818;stroke-width:1.0;" x1="102" x2="102" y1="176.6882" y2="211.6882"/><polygon fill="#181818" points="98,201.6882,102,211.6882,106,201.6882,102,205.6882" style="stroke:#181818;stroke-width:1.0;"/><line style="stroke:#181818;stroke-width:1.0;" x1="102" x2="102" y1="248.0323" y2="283.0323"/><polygon fill="#181818" points="98,273.0323,102,283.0323,106,273.0323,102,277.0323" style="stroke:#181818;stroke-width:1.0;"/><line style="stroke:#181818;stroke-width:1.0;" x1="310.5" x2="310.5" y1="146.3441" y2="166.3441"/><polygon fill="#181818" points="306.5,156.3441,310.5,166.3441,314.5,156.3441,310.5,160.3441" style="stroke:#181818;stroke-width:1.0;"/><line style="stroke:#181818;stroke-width:1.0;" x1="505.5" x2="505.5" y1="146.3441" y2="166.3441"/><polygon fill="#181818" points="501.5,156.3441,505.5,166.3441,509.5,156.3441,505.5,160.3441" style="stroke:#181818;stroke-width:1.0;"/><line style="stroke:#181818;stroke-width:1.0;" x1="701.5" x2="701.5" y1="146.3441" y2="166.3441"/><polygon fill="#181818" points="697.5,156.3441,701.5,166.3441,705.5,156.3441,701.5,160.3441" style="stroke:#181818;stroke-width:1.0;"/><line style="stroke:#181818;stroke-width:1.0;" x1="310.5" x2="310.5" y1="219.0323" y2="251.0323"/><line style="stroke:#181818;stroke-width:1.0;" x1="310.5" x2="494.5" y1="251.0323" y2="251.0323"/><polygon fill="#181818" points="484.5,247.0323,494.5,251.0323,484.5,255.0323,488.5,251.0323" style="stroke:#181818;stroke-width:1.0;"/><line style="stroke:#181818;stroke-width:1.0;" x1="505.5" x2="505.5" y1="219.0323" y2="239.0323"/><line style="stroke:#181818;stroke-width:1.0;" x1="505.5" x2="506.5" y1="239.0323" y2="239.0323"/><polygon fill="#181818" points="502.5,229.0323,506.5,239.0323,510.5,229.0323,506.5,233.0323" style="stroke:#181818;stroke-width:1.0;"/><line style="stroke:#181818;stroke-width:1.0;" x1="701.5" x2="701.5" y1="219.0323" y2="251.0323"/><line style="stroke:#181818;stroke-width:1.0;" x1="701.5" x2="518.5" y1="251.0323" y2="251.0323"/><polygon fill="#181818" points="528.5,247.0323,518.5,251.0323,528.5,255.0323,524.5,251.0323" style="stroke:#181818;stroke-width:1.0;"/><line style="stroke:#181818;stroke-width:1.0;" x1="506.5" x2="506.5" y1="263.0323" y2="298.0323"/><polygon fill="#181818" points="502.5,288.0323,506.5,298.0323,510.5,288.0323,506.5,292.0323" style="stroke:#181818;stroke-width:1.0;"/><line style="stroke:#181818;stroke-width:1.0;" x1="506.5" x2="506.5" y1="334.3765" y2="354.3765"/><polygon fill="#181818" points="502.5,344.3765,506.5,354.3765,510.5,344.3765,506.5,348.3765" style="stroke:#181818;stroke-width:1.0;"/><line style="stroke:#181818;stroke-width:1.0;" x1="219.75" x2="102" y1="118.3441" y2="118.3441"/><line style="stroke:#181818;stroke-width:1.0;" x1="102" x2="102" y1="118.3441" y2="140.3441"/><polygon fill="#181818" points="98,130.3441,102,140.3441,106,130.3441,102,134.3441" style="stroke:#181818;stroke-width:1.0;"/><line style="stroke:#181818;stroke-width:1.0;" x1="388.75" x2="506.5" y1="118.3441" y2="118.3441"/><line style="stroke:#181818;stroke-width:1.0;" x1="506.5" x2="506.5" y1="118.3441" y2="140.3441"/><polygon fill="#181818" points="502.5,130.3441,506.5,140.3441,510.5,130.3441,506.5,134.3441" style="stroke:#181818;stroke-width:1.0;"/><line style="stroke:#181818;stroke-width:1.0;" x1="304.25" x2="304.25" y1="86.3441" y2="106.3441"/><polygon fill="#181818" points="300.25,96.3441,304.25,106.3441,308.25,96.3441,304.25,100.3441" style="stroke:#181818;stroke-width:1.0;"/><!--SRC=[dP5DJiCm44RtFiKiKx5YswmG5-0AnlcSZ5fxqCo4bjlZc21QLeYLxVbv-lHi7jL3EBvmEf5VXBXEd1X6MQMGkNATRGo1CmrF2l85b9QeCJdK-jDYmM6xLHe-O8T0HCVd1OruOLzazLzROvzG-AgL7kc15BQUlPVDvItWRA2XIaTbqTDsta5_Q3teLp-pck-P6xF8EwRn6q5nZbp_1Z8agTE_IRR7sGo-Ikli6kz8g5E1phXrKUALorf8SZEcm2x6RioqxydX4m00]--></g></svg>